<svg xmlns="http://www.w3.org/2000/svg" xmlns:xlink="http://www.w3.org/1999/xlink" width="230.52" height="46" viewBox="0 0 230.52 46">
  <defs>
    <clipPath id="clip-path">
      <path id="Path_46" data-name="Path 46" d="M0,8.77H19.056V-10.286H0Z" transform="translate(0 10.286)"/>
    </clipPath>
    <clipPath id="clip-path-2">
      <path id="Path_48" data-name="Path 48" d="M0,6.42H9.12V-11.143H0Z" transform="translate(0 11.143)"/>
    </clipPath>
    <clipPath id="clip-path-3">
      <path id="Path_50" data-name="Path 50" d="M0,4.675H16.311V-8.571H0Z" transform="translate(0 8.571)"/>
    </clipPath>
    <clipPath id="clip-path-4">
      <rect id="Rectangle_1686" data-name="Rectangle 1686" width="44.18" height="44.276" fill="none"/>
    </clipPath>
  </defs>
  <g id="Group_1375" data-name="Group 1375" transform="translate(-102.66 -7207)">
    <g id="Group_1339" data-name="Group 1339" transform="translate(-70.34 -1616)">
      <path id="Path_79" data-name="Path 79" d="M23,0A23,23,0,1,1,0,23,23,23,0,0,1,23,0Z" transform="translate(173 8823)" fill="#fff"/>
      <circle id="Ellipse_5" data-name="Ellipse 5" cx="23" cy="23" r="23" transform="translate(235 8823)" fill="#fff"/>
      <path id="Path_78" data-name="Path 78" d="M23,0A23,23,0,1,1,0,23,23,23,0,0,1,23,0Z" transform="translate(296 8823)" fill="#fff"/>
      <g id="Group_424" data-name="Group 424" transform="translate(186.472 8846.758)">
        <g id="Group_423" data-name="Group 423" transform="translate(0 -10.286)" clip-path="url(#clip-path)">
          <g id="Group_422" data-name="Group 422" transform="translate(0 0.001)">
            <path id="Path_45" data-name="Path 45" d="M4.385,5.846a3.059,3.059,0,0,1-2.245-.93,3.059,3.059,0,0,1-.93-2.245A3.056,3.056,0,0,1,2.14.426,3.061,3.061,0,0,1,4.385-.506,3.061,3.061,0,0,1,6.63.426a3.056,3.056,0,0,1,.93,2.245,3.059,3.059,0,0,1-.93,2.245,3.059,3.059,0,0,1-2.245.93m0-8.064A4.714,4.714,0,0,0,.924-.792,4.714,4.714,0,0,0-.5,2.671,4.706,4.706,0,0,0,.924,6.132,4.714,4.714,0,0,0,4.385,7.558,4.714,4.714,0,0,0,7.846,6.132,4.706,4.706,0,0,0,9.272,2.671,4.714,4.714,0,0,0,7.846-.792,4.714,4.714,0,0,0,4.385-2.218M9.472-3.558a1.1,1.1,0,0,0-.808.335,1.1,1.1,0,0,0-.335.806,1.1,1.1,0,0,0,.335.806,1.1,1.1,0,0,0,.808.335,1.1,1.1,0,0,0,.806-.335,1.1,1.1,0,0,0,.335-.806,1.1,1.1,0,0,0-.335-.806,1.1,1.1,0,0,0-.806-.335M6.643-5.151c.3,0,.7.017,1.2.037a9.634,9.634,0,0,1,1.278.124A4.757,4.757,0,0,1,10-4.76a3.2,3.2,0,0,1,1.093.719,3.235,3.235,0,0,1,.719,1.091,4.93,4.93,0,0,1,.23.887A9.634,9.634,0,0,1,12.17-.784q.031.75.037,1.2t0,1.308q-.006.864-.006.95c0,.057,0,.374.006.949s0,1.012,0,1.308-.017.7-.037,1.2A9.571,9.571,0,0,1,12.045,7.4a4.889,4.889,0,0,1-.23.887A3.249,3.249,0,0,1,10,10.1a5.066,5.066,0,0,1-.886.23,9.956,9.956,0,0,1-1.278.124c-.5.02-.9.033-1.2.037s-.734,0-1.31,0l-.949-.007-.949.007c-.576,0-1.012,0-1.31,0s-.7-.017-1.2-.037a9.956,9.956,0,0,1-1.278-.124,5.066,5.066,0,0,1-.886-.23,3.2,3.2,0,0,1-1.093-.721A3.217,3.217,0,0,1-3.046,8.29a4.889,4.889,0,0,1-.23-.887A9.571,9.571,0,0,1-3.4,6.126q-.031-.75-.037-1.2c0-.3,0-.734,0-1.308s.006-.891.006-.949,0-.374-.006-.95,0-1.01,0-1.308.017-.7.037-1.2a9.634,9.634,0,0,1,.124-1.278,4.93,4.93,0,0,1,.23-.887,3.235,3.235,0,0,1,.719-1.091A3.2,3.2,0,0,1-1.234-4.76a4.757,4.757,0,0,1,.886-.23A9.634,9.634,0,0,1,.93-5.114c.5-.02.9-.033,1.2-.037s.734-.006,1.31,0l.949.006.949-.006c.576-.006,1.012-.006,1.31,0M13.85-1.262a5.811,5.811,0,0,0-1.538-3.994A5.824,5.824,0,0,0,8.318-6.8q-1.092-.061-3.933-.061T.452-6.8a5.824,5.824,0,0,0-3.994,1.54A5.811,5.811,0,0,0-5.08-1.262Q-5.144-.17-5.143,2.671T-5.08,6.6a5.816,5.816,0,0,0,1.538,4A5.823,5.823,0,0,0,.452,12.136q1.092.061,3.933.063t3.933-.063A5.823,5.823,0,0,0,12.312,10.6a5.816,5.816,0,0,0,1.538-4q.064-1.089.063-3.931T13.85-1.262" transform="translate(5.143 6.857)"/>
          </g>
        </g>
      </g>
      <g id="Group_427" data-name="Group 427" transform="translate(252.44 8847.614)">
        <g id="Group_426" data-name="Group 426" transform="translate(0 -11.143)" clip-path="url(#clip-path-2)">
          <g id="Group_425" data-name="Group 425" transform="translate(0 0)">
            <path id="Path_47" data-name="Path 47" d="M2.454,0A3.988,3.988,0,0,0-.47,1.081a4.086,4.086,0,0,0-1.1,3.045v2.3H-4.259V9.551h2.692v8.012h3.23V9.551H4.344l.411-3.124H1.663V4.434a1.751,1.751,0,0,1,.317-1.141A1.552,1.552,0,0,1,3.2,2.913H4.861V.126A17.638,17.638,0,0,0,2.454,0" transform="translate(4.259)"/>
          </g>
        </g>
      </g>
      <g id="Group_430" data-name="Group 430" transform="translate(311.845 8848.201)">
        <g id="Group_429" data-name="Group 429" transform="translate(0 -8.571)" clip-path="url(#clip-path-3)">
          <g id="Group_428" data-name="Group 428" transform="translate(0 -0.001)">
            <path id="Path_49" data-name="Path 49" d="M5.077.738A3.244,3.244,0,0,0,6.547-1.1,6.511,6.511,0,0,1,4.425-.3,3.222,3.222,0,0,0,1.983-1.353,3.219,3.219,0,0,0-.381-.375,3.221,3.221,0,0,0-1.36,1.99a3.8,3.8,0,0,0,.082.767A9.326,9.326,0,0,1-5.121,1.727,9.462,9.462,0,0,1-8.169-.743,3.27,3.27,0,0,0-8.625.945a3.255,3.255,0,0,0,.4,1.593,3.34,3.34,0,0,0,1.086,1.19,3.314,3.314,0,0,1-1.51-.423v.04a3.232,3.232,0,0,0,.76,2.128A3.281,3.281,0,0,0-5.965,6.626a3.468,3.468,0,0,1-.879.114,4.127,4.127,0,0,1-.632-.053A3.27,3.27,0,0,0-6.3,8.34a3.246,3.246,0,0,0,1.946.666A6.54,6.54,0,0,1-8.5,10.436a7.084,7.084,0,0,1-.807-.042,9.286,9.286,0,0,0,5.133,1.5,9.782,9.782,0,0,0,3.343-.564A8.488,8.488,0,0,0,1.838,9.819a10.129,10.129,0,0,0,1.91-2.178A9.774,9.774,0,0,0,4.943,5.068a9.47,9.47,0,0,0,.393-2.685q0-.29-.009-.436A7.017,7.017,0,0,0,7,.22,6.675,6.675,0,0,1,5.077.738" transform="translate(9.308 1.353)"/>
          </g>
        </g>
      </g>
    </g>
    <g id="Group_1342" data-name="Group 1342" transform="translate(1 -1.086)">
      <ellipse id="Ellipse_120" data-name="Ellipse 120" cx="16" cy="16.5" rx="16" ry="16.5" transform="translate(288 7213.724)"/>
      <g id="Group_1341" data-name="Group 1341" transform="translate(288 7208.086)">
        <g id="Group_1340" data-name="Group 1340" clip-path="url(#clip-path-4)">
          <path id="Path_80" data-name="Path 80" d="M20.7,0h2.762A2.436,2.436,0,0,0,23.8.071a21.01,21.01,0,0,1,9.6,3.057,21.852,21.852,0,0,1,10.447,15.2c.15.8.228,1.62.339,2.431v2.767c-.036.284-.075.567-.106.851a21.79,21.79,0,0,1-4.846,11.712,21.741,21.741,0,0,1-13.3,7.848c-.816.149-1.644.23-2.467.343H20.7c-.539-.067-1.08-.123-1.618-.2A21.562,21.562,0,0,1,5.934,37.212,21.631,21.631,0,0,1,.2,19.144,21.194,21.194,0,0,1,5.521,7.5,21.653,21.653,0,0,1,18.32.334C19.11.2,19.909.11,20.7,0m.006,20.154c-.232-.021-.435-.053-.639-.054-.264,0-.528.013-.791.037a5.322,5.322,0,1,0,6.013,5.21c0-1.933-.012-3.867-.019-5.8,0-.109,0-.219,0-.358,1.859,1.1,3.313,1.57,4.327,1.417V17.853a4.385,4.385,0,0,1-4.336-4.3H22.47c0,.144,0,.27,0,.4q0,5.623-.008,11.246a3.584,3.584,0,0,1-.071.789A2.527,2.527,0,0,1,19.44,27.92a2.537,2.537,0,0,1,.7-5.021c.189.015.376.051.572.078Z" transform="translate(0)" fill="#fff"/>
        </g>
      </g>
    </g>
  </g>
</svg>
